<svg width="12" height="21" viewBox="0 0 12 21" fill="none" xmlns="http://www.w3.org/2000/svg">
<path fill-rule="evenodd" clip-rule="evenodd" d="M0.535225 9.09779C0.256551 9.38513 0.1 9.77478 0.1 10.1811C0.1 10.5874 0.256551 10.977 0.535225 11.2644L8.9443 19.9321C9.08142 20.0785 9.24545 20.1952 9.4268 20.2755C9.60816 20.3558 9.80322 20.3981 10.0006 20.3998C10.198 20.4016 10.3937 20.3628 10.5764 20.2858C10.7591 20.2088 10.925 20.095 11.0646 19.9511C11.2042 19.8073 11.3146 19.6362 11.3893 19.4479C11.464 19.2596 11.5017 19.0578 11.4999 18.8544C11.4982 18.6509 11.4572 18.4499 11.3793 18.2629C11.3014 18.076 11.1882 17.9069 11.0462 17.7656L3.68807 10.1811L11.0462 2.59657C11.317 2.30759 11.4668 1.92055 11.4634 1.51881C11.46 1.11707 11.3037 0.732767 11.0281 0.448681C10.7525 0.164595 10.3796 0.00345099 9.98989 -4.00543e-05C9.60014 -0.0035311 9.22465 0.150907 8.9443 0.430014L0.535225 9.09779Z" fill="#545454"/>
</svg>
