<svg width="12" height="21" viewBox="0 0 12 21" fill="none" xmlns="http://www.w3.org/2000/svg">
<path fill-rule="evenodd" clip-rule="evenodd" d="M11.4648 9.09779C11.7435 9.38513 11.9 9.77478 11.9 10.1811C11.9 10.5874 11.7435 10.977 11.4648 11.2644L3.05571 19.9321C2.91858 20.0785 2.75456 20.1952 2.5732 20.2755C2.39184 20.3558 2.19678 20.3981 1.99941 20.3998C1.80203 20.4016 1.60629 20.3628 1.42361 20.2858C1.24092 20.2088 1.07495 20.095 0.935384 19.9511C0.795813 19.8073 0.685437 19.6362 0.610695 19.4479C0.535953 19.2596 0.498342 19.0578 0.500057 18.8544C0.501772 18.6509 0.542779 18.4499 0.620685 18.2629C0.69859 18.076 0.811834 17.9069 0.953809 17.7656L8.31193 10.1811L0.953809 2.59657C0.683033 2.30759 0.533203 1.92055 0.53659 1.51881C0.539976 1.11707 0.696309 0.732767 0.971916 0.448681C1.24752 0.164595 1.62035 0.00345099 2.01011 -4.00543e-05C2.39986 -0.0035311 2.77535 0.150907 3.05571 0.430014L11.4648 9.09779Z" fill="#545454"/>
</svg>
