<svg width="156" height="49" viewBox="0 0 156 49" fill="none" xmlns="http://www.w3.org/2000/svg">
<path d="M0 37.5L2.07864 42.8863L5.70402 38.393L0 37.5ZM61.037 23.8114C58.4643 30.1261 50.4557 38.7799 39.9021 43.5339C29.3824 48.2727 16.3955 49.1115 3.79948 39.9239L3.21018 40.7318C16.153 50.1724 29.5344 49.301 40.3129 44.4457C51.0575 39.6056 59.2771 30.7813 61.963 24.1886L61.037 23.8114Z" fill="#0B2110"/>
<path d="M63.2083 13.084C62.6243 13.084 62.0963 12.984 61.6243 12.784C61.1603 12.584 60.7923 12.296 60.5203 11.92C60.2483 11.544 60.1083 11.1 60.1003 10.588H61.9003C61.9243 10.932 62.0443 11.204 62.2603 11.404C62.4843 11.604 62.7883 11.704 63.1723 11.704C63.5643 11.704 63.8723 11.612 64.0963 11.428C64.3203 11.236 64.4323 10.988 64.4323 10.684C64.4323 10.436 64.3563 10.232 64.2043 10.072C64.0523 9.912 63.8603 9.788 63.6283 9.7C63.4043 9.604 63.0923 9.5 62.6923 9.388C62.1483 9.228 61.7043 9.072 61.3603 8.92C61.0243 8.76 60.7323 8.524 60.4843 8.212C60.2443 7.892 60.1243 7.468 60.1243 6.94C60.1243 6.444 60.2483 6.012 60.4963 5.644C60.7443 5.276 61.0923 4.996 61.5403 4.804C61.9883 4.604 62.5003 4.504 63.0763 4.504C63.9403 4.504 64.6403 4.716 65.1763 5.14C65.7203 5.556 66.0203 6.14 66.0763 6.892H64.2283C64.2123 6.604 64.0883 6.368 63.8563 6.184C63.6323 5.992 63.3323 5.896 62.9563 5.896C62.6283 5.896 62.3643 5.98 62.1643 6.148C61.9723 6.316 61.8763 6.56 61.8763 6.88C61.8763 7.104 61.9483 7.292 62.0923 7.444C62.2443 7.588 62.4283 7.708 62.6443 7.804C62.8683 7.892 63.1803 7.996 63.5803 8.116C64.1243 8.276 64.5683 8.436 64.9123 8.596C65.2563 8.756 65.5523 8.996 65.8003 9.316C66.0483 9.636 66.1723 10.056 66.1723 10.576C66.1723 11.024 66.0563 11.44 65.8243 11.824C65.5923 12.208 65.2523 12.516 64.8043 12.748C64.3563 12.972 63.8243 13.084 63.2083 13.084ZM72.7648 11.404H69.4288L68.8768 13H67.1128L70.1248 4.612H72.0808L75.0928 13H73.3168L72.7648 11.404ZM72.3088 10.06L71.0968 6.556L69.8848 10.06H72.3088ZM83.7426 4.624L80.6706 13H78.6306L75.5586 4.624H77.3586L79.6626 11.284L81.9546 4.624H83.7426ZM86.4299 5.98V8.08H89.2499V9.412H86.4299V11.632H89.6099V13H84.7499V4.612H89.6099V5.98H86.4299ZM95.652 4.624V9.808C95.652 10.376 95.8 10.812 96.096 11.116C96.392 11.412 96.808 11.56 97.344 11.56C97.888 11.56 98.308 11.412 98.604 11.116C98.9 10.812 99.048 10.376 99.048 9.808V4.624H100.74V9.796C100.74 10.508 100.584 11.112 100.272 11.608C99.968 12.096 99.556 12.464 99.036 12.712C98.524 12.96 97.952 13.084 97.32 13.084C96.696 13.084 96.128 12.96 95.616 12.712C95.112 12.464 94.712 12.096 94.416 11.608C94.12 11.112 93.972 10.508 93.972 9.796V4.624H95.652ZM108.471 7.216C108.471 7.664 108.363 8.084 108.147 8.476C107.939 8.868 107.607 9.184 107.151 9.424C106.703 9.664 106.135 9.784 105.447 9.784H104.043V13H102.363V4.624H105.447C106.095 4.624 106.647 4.736 107.103 4.96C107.559 5.184 107.899 5.492 108.123 5.884C108.355 6.276 108.471 6.72 108.471 7.216ZM105.375 8.428C105.839 8.428 106.183 8.324 106.407 8.116C106.631 7.9 106.743 7.6 106.743 7.216C106.743 6.4 106.287 5.992 105.375 5.992H104.043V8.428H105.375ZM118.223 4.624V5.98H115.991V13H114.311V5.98H112.079V4.624H118.223ZM123.337 13.084C122.553 13.084 121.833 12.9 121.177 12.532C120.521 12.164 120.001 11.656 119.617 11.008C119.233 10.352 119.041 9.612 119.041 8.788C119.041 7.972 119.233 7.24 119.617 6.592C120.001 5.936 120.521 5.424 121.177 5.056C121.833 4.688 122.553 4.504 123.337 4.504C124.129 4.504 124.849 4.688 125.497 5.056C126.153 5.424 126.669 5.936 127.045 6.592C127.429 7.24 127.621 7.972 127.621 8.788C127.621 9.612 127.429 10.352 127.045 11.008C126.669 11.656 126.153 12.164 125.497 12.532C124.841 12.9 124.121 13.084 123.337 13.084ZM123.337 11.584C123.841 11.584 124.285 11.472 124.669 11.248C125.053 11.016 125.353 10.688 125.569 10.264C125.785 9.84 125.893 9.348 125.893 8.788C125.893 8.228 125.785 7.74 125.569 7.324C125.353 6.9 125.053 6.576 124.669 6.352C124.285 6.128 123.841 6.016 123.337 6.016C122.833 6.016 122.385 6.128 121.993 6.352C121.609 6.576 121.309 6.9 121.093 7.324C120.877 7.74 120.769 8.228 120.769 8.788C120.769 9.348 120.877 9.84 121.093 10.264C121.309 10.688 121.609 11.016 121.993 11.248C122.385 11.472 122.833 11.584 123.337 11.584ZM132.066 11.104C132.834 10.464 133.446 9.932 133.902 9.508C134.358 9.076 134.738 8.628 135.042 8.164C135.346 7.7 135.498 7.244 135.498 6.796C135.498 6.388 135.402 6.068 135.21 5.836C135.018 5.604 134.722 5.488 134.322 5.488C133.922 5.488 133.614 5.624 133.398 5.896C133.182 6.16 133.07 6.524 133.062 6.988H131.43C131.462 6.028 131.746 5.3 132.282 4.804C132.826 4.308 133.514 4.06 134.346 4.06C135.258 4.06 135.958 4.304 136.446 4.792C136.934 5.272 137.178 5.908 137.178 6.7C137.178 7.324 137.01 7.92 136.674 8.488C136.338 9.056 135.954 9.552 135.522 9.976C135.09 10.392 134.526 10.896 133.83 11.488H137.37V12.88H131.442V11.632L132.066 11.104ZM138.429 8.512C138.429 7.128 138.677 6.044 139.173 5.26C139.677 4.476 140.509 4.084 141.669 4.084C142.829 4.084 143.657 4.476 144.153 5.26C144.657 6.044 144.909 7.128 144.909 8.512C144.909 9.904 144.657 10.996 144.153 11.788C143.657 12.58 142.829 12.976 141.669 12.976C140.509 12.976 139.677 12.58 139.173 11.788C138.677 10.996 138.429 9.904 138.429 8.512ZM143.253 8.512C143.253 7.92 143.213 7.424 143.133 7.024C143.061 6.616 142.909 6.284 142.677 6.028C142.453 5.772 142.117 5.644 141.669 5.644C141.221 5.644 140.881 5.772 140.649 6.028C140.425 6.284 140.273 6.616 140.193 7.024C140.121 7.424 140.085 7.92 140.085 8.512C140.085 9.12 140.121 9.632 140.193 10.048C140.265 10.456 140.417 10.788 140.649 11.044C140.881 11.292 141.221 11.416 141.669 11.416C142.117 11.416 142.457 11.292 142.689 11.044C142.921 10.788 143.073 10.456 143.145 10.048C143.217 9.632 143.253 9.12 143.253 8.512ZM145.995 6.4C145.995 5.792 146.171 5.316 146.523 4.972C146.883 4.628 147.343 4.456 147.903 4.456C148.463 4.456 148.919 4.628 149.271 4.972C149.631 5.316 149.811 5.792 149.811 6.4C149.811 7.016 149.631 7.496 149.271 7.84C148.919 8.184 148.463 8.356 147.903 8.356C147.343 8.356 146.883 8.184 146.523 7.84C146.171 7.496 145.995 7.016 145.995 6.4ZM153.699 4.6L148.983 13H147.351L152.055 4.6H153.699ZM147.891 5.464C147.451 5.464 147.231 5.776 147.231 6.4C147.231 7.032 147.451 7.348 147.891 7.348C148.107 7.348 148.275 7.272 148.395 7.12C148.515 6.96 148.575 6.72 148.575 6.4C148.575 5.776 148.347 5.464 147.891 5.464ZM151.263 11.188C151.263 10.572 151.439 10.096 151.791 9.76C152.151 9.416 152.611 9.244 153.171 9.244C153.731 9.244 154.183 9.416 154.527 9.76C154.879 10.096 155.055 10.572 155.055 11.188C155.055 11.804 154.879 12.284 154.527 12.628C154.183 12.972 153.731 13.144 153.171 13.144C152.603 13.144 152.143 12.972 151.791 12.628C151.439 12.284 151.263 11.804 151.263 11.188ZM153.159 10.252C152.703 10.252 152.475 10.564 152.475 11.188C152.475 11.82 152.703 12.136 153.159 12.136C153.607 12.136 153.831 11.82 153.831 11.188C153.831 10.564 153.607 10.252 153.159 10.252Z" fill="#65AC00"/>
</svg>
