<svg width="172" height="48" viewBox="0 0 172 48" fill="none" xmlns="http://www.w3.org/2000/svg">
<path d="M167.363 12.2022L167.789 17.96L162.59 15.4496L167.363 12.2022ZM106.338 25.9422C111.365 30.5492 122.306 34.9449 133.879 34.7269C145.414 34.5096 157.512 29.7117 164.966 16.0185L165.844 16.4967C158.185 30.5669 145.717 35.504 133.897 35.7267C122.115 35.9486 110.91 31.4892 105.662 26.6794L106.338 25.9422Z" fill="#0B2110"/>
<path d="M4.70828 28.084C4.12428 28.084 3.59628 27.984 3.12428 27.784C2.66028 27.584 2.29228 27.296 2.02028 26.92C1.74828 26.544 1.60828 26.1 1.60028 25.588H3.40028C3.42428 25.932 3.54428 26.204 3.76028 26.404C3.98428 26.604 4.28828 26.704 4.67228 26.704C5.06428 26.704 5.37228 26.612 5.59628 26.428C5.82028 26.236 5.93228 25.988 5.93228 25.684C5.93228 25.436 5.85628 25.232 5.70428 25.072C5.55228 24.912 5.36028 24.788 5.12828 24.7C4.90428 24.604 4.59228 24.5 4.19228 24.388C3.64828 24.228 3.20428 24.072 2.86028 23.92C2.52428 23.76 2.23228 23.524 1.98428 23.212C1.74428 22.892 1.62428 22.468 1.62428 21.94C1.62428 21.444 1.74828 21.012 1.99628 20.644C2.24428 20.276 2.59228 19.996 3.04028 19.804C3.48828 19.604 4.00028 19.504 4.57628 19.504C5.44028 19.504 6.14028 19.716 6.67628 20.14C7.22028 20.556 7.52028 21.14 7.57628 21.892H5.72828C5.71228 21.604 5.58828 21.368 5.35628 21.184C5.13228 20.992 4.83228 20.896 4.45628 20.896C4.12828 20.896 3.86428 20.98 3.66428 21.148C3.47228 21.316 3.37628 21.56 3.37628 21.88C3.37628 22.104 3.44828 22.292 3.59228 22.444C3.74428 22.588 3.92828 22.708 4.14428 22.804C4.36828 22.892 4.68028 22.996 5.08028 23.116C5.62428 23.276 6.06828 23.436 6.41228 23.596C6.75628 23.756 7.05228 23.996 7.30028 24.316C7.54828 24.636 7.67228 25.056 7.67228 25.576C7.67228 26.024 7.55628 26.44 7.32428 26.824C7.09228 27.208 6.75228 27.516 6.30428 27.748C5.85628 27.972 5.32428 28.084 4.70828 28.084ZM14.2648 26.404H10.9288L10.3768 28H8.61278L11.6248 19.612H13.5808L16.5928 28H14.8168L14.2648 26.404ZM13.8088 25.06L12.5968 21.556L11.3848 25.06H13.8088ZM25.2426 19.624L22.1706 28H20.1306L17.0586 19.624H18.8586L21.1626 26.284L23.4546 19.624H25.2426ZM27.9299 20.98V23.08H30.7499V24.412H27.9299V26.632H31.1099V28H26.2499V19.612H31.1099V20.98H27.9299ZM37.152 19.624V24.808C37.152 25.376 37.3 25.812 37.596 26.116C37.892 26.412 38.308 26.56 38.844 26.56C39.388 26.56 39.808 26.412 40.104 26.116C40.4 25.812 40.548 25.376 40.548 24.808V19.624H42.24V24.796C42.24 25.508 42.084 26.112 41.772 26.608C41.468 27.096 41.056 27.464 40.536 27.712C40.024 27.96 39.452 28.084 38.82 28.084C38.196 28.084 37.628 27.96 37.116 27.712C36.612 27.464 36.212 27.096 35.916 26.608C35.62 26.112 35.472 25.508 35.472 24.796V19.624H37.152ZM49.9712 22.216C49.9712 22.664 49.8632 23.084 49.6472 23.476C49.4392 23.868 49.1072 24.184 48.6512 24.424C48.2032 24.664 47.6352 24.784 46.9472 24.784H45.5432V28H43.8632V19.624H46.9472C47.5952 19.624 48.1472 19.736 48.6032 19.96C49.0592 20.184 49.3992 20.492 49.6232 20.884C49.8552 21.276 49.9712 21.72 49.9712 22.216ZM46.8752 23.428C47.3392 23.428 47.6832 23.324 47.9072 23.116C48.1312 22.9 48.2432 22.6 48.2432 22.216C48.2432 21.4 47.7872 20.992 46.8752 20.992H45.5432V23.428H46.8752ZM59.7233 19.624V20.98H57.4913V28H55.8113V20.98H53.5793V19.624H59.7233ZM64.8371 28.084C64.0531 28.084 63.3331 27.9 62.6771 27.532C62.0211 27.164 61.5011 26.656 61.1171 26.008C60.7331 25.352 60.5411 24.612 60.5411 23.788C60.5411 22.972 60.7331 22.24 61.1171 21.592C61.5011 20.936 62.0211 20.424 62.6771 20.056C63.3331 19.688 64.0531 19.504 64.8371 19.504C65.6291 19.504 66.3491 19.688 66.9971 20.056C67.6531 20.424 68.1691 20.936 68.5451 21.592C68.9291 22.24 69.1211 22.972 69.1211 23.788C69.1211 24.612 68.9291 25.352 68.5451 26.008C68.1691 26.656 67.6531 27.164 66.9971 27.532C66.3411 27.9 65.6211 28.084 64.8371 28.084ZM64.8371 26.584C65.3411 26.584 65.7851 26.472 66.1691 26.248C66.5531 26.016 66.8531 25.688 67.0691 25.264C67.2851 24.84 67.3931 24.348 67.3931 23.788C67.3931 23.228 67.2851 22.74 67.0691 22.324C66.8531 21.9 66.5531 21.576 66.1691 21.352C65.7851 21.128 65.3411 21.016 64.8371 21.016C64.3331 21.016 63.8851 21.128 63.4931 21.352C63.1091 21.576 62.8091 21.9 62.5931 22.324C62.3771 22.74 62.2691 23.228 62.2691 23.788C62.2691 24.348 62.3771 24.84 62.5931 25.264C62.8091 25.688 63.1091 26.016 63.4931 26.248C63.8851 26.472 64.3331 26.584 64.8371 26.584ZM73.5663 26.104C74.3343 25.464 74.9463 24.932 75.4023 24.508C75.8583 24.076 76.2383 23.628 76.5423 23.164C76.8463 22.7 76.9983 22.244 76.9983 21.796C76.9983 21.388 76.9023 21.068 76.7103 20.836C76.5183 20.604 76.2223 20.488 75.8223 20.488C75.4223 20.488 75.1143 20.624 74.8983 20.896C74.6823 21.16 74.5703 21.524 74.5623 21.988H72.9303C72.9623 21.028 73.2463 20.3 73.7823 19.804C74.3263 19.308 75.0143 19.06 75.8463 19.06C76.7583 19.06 77.4583 19.304 77.9463 19.792C78.4343 20.272 78.6783 20.908 78.6783 21.7C78.6783 22.324 78.5103 22.92 78.1743 23.488C77.8383 24.056 77.4543 24.552 77.0223 24.976C76.5903 25.392 76.0263 25.896 75.3303 26.488H78.8703V27.88H72.9423V26.632L73.5663 26.104ZM79.929 23.512C79.929 22.128 80.177 21.044 80.673 20.26C81.177 19.476 82.009 19.084 83.169 19.084C84.329 19.084 85.157 19.476 85.653 20.26C86.157 21.044 86.409 22.128 86.409 23.512C86.409 24.904 86.157 25.996 85.653 26.788C85.157 27.58 84.329 27.976 83.169 27.976C82.009 27.976 81.177 27.58 80.673 26.788C80.177 25.996 79.929 24.904 79.929 23.512ZM84.753 23.512C84.753 22.92 84.713 22.424 84.633 22.024C84.561 21.616 84.409 21.284 84.177 21.028C83.953 20.772 83.617 20.644 83.169 20.644C82.721 20.644 82.381 20.772 82.149 21.028C81.925 21.284 81.773 21.616 81.693 22.024C81.621 22.424 81.585 22.92 81.585 23.512C81.585 24.12 81.621 24.632 81.693 25.048C81.765 25.456 81.917 25.788 82.149 26.044C82.381 26.292 82.721 26.416 83.169 26.416C83.617 26.416 83.957 26.292 84.189 26.044C84.421 25.788 84.573 25.456 84.645 25.048C84.717 24.632 84.753 24.12 84.753 23.512ZM87.4948 21.4C87.4948 20.792 87.6708 20.316 88.0228 19.972C88.3828 19.628 88.8428 19.456 89.4028 19.456C89.9628 19.456 90.4188 19.628 90.7708 19.972C91.1308 20.316 91.3108 20.792 91.3108 21.4C91.3108 22.016 91.1308 22.496 90.7708 22.84C90.4188 23.184 89.9628 23.356 89.4028 23.356C88.8428 23.356 88.3828 23.184 88.0228 22.84C87.6708 22.496 87.4948 22.016 87.4948 21.4ZM95.1988 19.6L90.4828 28H88.8508L93.5548 19.6H95.1988ZM89.3908 20.464C88.9508 20.464 88.7308 20.776 88.7308 21.4C88.7308 22.032 88.9508 22.348 89.3908 22.348C89.6068 22.348 89.7748 22.272 89.8948 22.12C90.0148 21.96 90.0748 21.72 90.0748 21.4C90.0748 20.776 89.8468 20.464 89.3908 20.464ZM92.7628 26.188C92.7628 25.572 92.9388 25.096 93.2908 24.76C93.6508 24.416 94.1108 24.244 94.6708 24.244C95.2308 24.244 95.6828 24.416 96.0268 24.76C96.3788 25.096 96.5548 25.572 96.5548 26.188C96.5548 26.804 96.3788 27.284 96.0268 27.628C95.6828 27.972 95.2308 28.144 94.6708 28.144C94.1028 28.144 93.6428 27.972 93.2908 27.628C92.9388 27.284 92.7628 26.804 92.7628 26.188ZM94.6588 25.252C94.2028 25.252 93.9748 25.564 93.9748 26.188C93.9748 26.82 94.2028 27.136 94.6588 27.136C95.1068 27.136 95.3308 26.82 95.3308 26.188C95.3308 25.564 95.1068 25.252 94.6588 25.252Z" fill="#65AC00"/>
</svg>
