<svg width="53" height="43" viewBox="0 0 53 43" fill="none" xmlns="http://www.w3.org/2000/svg">
<path d="M11.8333 32.5C11.3139 32.5 10.8782 32.324 10.5262 31.972C10.1742 31.62 9.99878 31.1849 10 30.6667C10 30.1472 10.176 29.7115 10.528 29.3595C10.88 29.0075 11.3151 28.8321 11.8333 28.8333H41.1667C41.6861 28.8333 42.1218 29.0093 42.4738 29.3613C42.8258 29.7133 43.0012 30.1485 43 30.6667C43 31.1861 42.824 31.6218 42.472 31.9738C42.12 32.3258 41.6849 32.5012 41.1667 32.5H11.8333ZM11.8333 23.3333C11.3139 23.3333 10.8782 23.1573 10.5262 22.8053C10.1742 22.4533 9.99878 22.0182 10 21.5C10 20.9806 10.176 20.5448 10.528 20.1928C10.88 19.8408 11.3151 19.6655 11.8333 19.6667H41.1667C41.6861 19.6667 42.1218 19.8427 42.4738 20.1947C42.8258 20.5467 43.0012 20.9818 43 21.5C43 22.0195 42.824 22.4552 42.472 22.8072C42.12 23.1592 41.6849 23.3346 41.1667 23.3333H11.8333ZM11.8333 14.1667C11.3139 14.1667 10.8782 13.9907 10.5262 13.6387C10.1742 13.2867 9.99878 12.8516 10 12.3333C10 11.8139 10.176 11.3782 10.528 11.0262C10.88 10.6742 11.3151 10.4988 11.8333 10.5H41.1667C41.6861 10.5 42.1218 10.676 42.4738 11.028C42.8258 11.38 43.0012 11.8151 43 12.3333C43 12.8528 42.824 13.2885 42.472 13.6405C42.12 13.9925 41.6849 14.1679 41.1667 14.1667H11.8333Z" fill="#65AC00"/>
</svg>
