<svg width="45" height="46" viewBox="0 0 45 46" fill="none" xmlns="http://www.w3.org/2000/svg">
<path d="M15.599 3.34573C15.7273 0.442393 19.4959 -0.600606 21.0986 1.82364L26.9305 10.6446C27.6473 11.7288 28.9806 12.2281 30.2332 11.8814L40.4246 9.06082C43.2255 8.28564 45.382 11.5474 43.5717 13.8209L36.9846 22.0932C36.175 23.1099 36.1121 24.5323 36.8289 25.6164L42.6608 34.4374C44.2635 36.8616 41.8278 39.9206 39.1062 38.9014L29.2033 35.1929C27.9861 34.7371 26.6139 35.1169 25.8043 36.1336L19.2172 44.4059C17.4069 46.6794 13.745 45.3081 13.8733 42.4047L14.3401 31.8405C14.3974 30.5421 13.6122 29.3544 12.3951 28.8986L2.49215 25.1902C-0.229449 24.171 -0.0568513 20.2646 2.74403 19.4894L12.9354 16.6688C14.188 16.3221 15.0749 15.2083 15.1323 13.9099L15.599 3.34573Z" fill="#65AC00"/>
</svg>
